HIERARCHY
ROOT Hips
{
 OFFSET 0.000000 0.000000 0.000000
 CHANNELS 6 Xposition Yposition Zposition Yrotation Xrotation Zrotation
 JOINT Chest
 {
  OFFSET 0.000000 9.585900 0.002600
  CHANNELS 3 Yrotation Xrotation Zrotation
  JOINT Chest2
  {
   OFFSET 0.000000 9.601200 -0.005300
   CHANNELS 3 Yrotation Xrotation Zrotation
   JOINT Chest3
   {
    OFFSET 0.000000 9.561800 0.000000
    CHANNELS 3 Yrotation Xrotation Zrotation
    JOINT Chest4
    {
     OFFSET 0.000000 9.552100 0.000000
     CHANNELS 3 Yrotation Xrotation Zrotation
     JOINT Neck
     {
      OFFSET 0.000000 14.453000 0.000000
      CHANNELS 3 Yrotation Xrotation Zrotation
      JOINT Head
      {
       OFFSET 0.000000 8.936500 -0.011300
       CHANNELS 3 Yrotation Xrotation Zrotation
       End Site
       {
        OFFSET 0.000000 17.073600 -0.006000
       }
      }
     }
     JOINT RightCollar
     {
      OFFSET -2.921100 9.558500 0.000000
      CHANNELS 3 Yrotation Xrotation Zrotation
      JOINT RightShoulder
      {
       OFFSET -13.519700 0.000000 0.000000
       CHANNELS 3 Yrotation Xrotation Zrotation
       JOINT RightElbow
       {
        OFFSET 0.000000 -29.696600 0.000000
        CHANNELS 3 Yrotation Xrotation Zrotation
        JOINT RightWrist
        {
         OFFSET 0.000000 -24.004700 0.000000
         CHANNELS 3 Yrotation Xrotation Zrotation
         End Site
         {
          OFFSET 0.000000 -17.728500 0.000000
         }
        }
       }
      }
     }
     JOINT LeftCollar
     {
      OFFSET 2.921100 9.558500 0.000000
      CHANNELS 3 Yrotation Xrotation Zrotation
      JOINT LeftShoulder
      {
       OFFSET 13.519700 0.000000 0.000000
       CHANNELS 3 Yrotation Xrotation Zrotation
       JOINT LeftElbow
       {
        OFFSET 0.000000 -29.696600 0.000000
        CHANNELS 3 Yrotation Xrotation Zrotation
        JOINT LeftWrist
        {
         OFFSET 0.000000 -24.004700 0.000000
         CHANNELS 3 Yrotation Xrotation Zrotation
         End Site
         {
          OFFSET 0.000000 -17.728500 0.000000
         }
        }
       }
      }
     }
    }
   }
  }
 }
 JOINT RightHip
 {
  OFFSET -7.771700 -0.012900 -0.001300
  CHANNELS 3 Yrotation Xrotation Zrotation
  JOINT RightKnee
  {
   OFFSET 0.000000 -40.869800 0.001200
   CHANNELS 3 Yrotation Xrotation Zrotation
   JOINT RightAnkle
   {
    OFFSET 0.000000 -39.717900 0.002100
    CHANNELS 3 Yrotation Xrotation Zrotation
    JOINT RightToe
    {
     OFFSET 0.000000 -4.965400 11.033500
     CHANNELS 3 Yrotation Xrotation Zrotation
     End Site
     {
      OFFSET 0.000000 -1.423100 5.872300
     }
    }
   }
  }
 }
 JOINT LeftHip
 {
  OFFSET 7.771700 -0.012900 -0.001300
  CHANNELS 3 Yrotation Xrotation Zrotation
  JOINT LeftKnee
  {
   OFFSET 0.000000 -40.869800 0.001200
   CHANNELS 3 Yrotation Xrotation Zrotation
   JOINT LeftAnkle
   {
    OFFSET 0.000000 -39.717900 0.002100
    CHANNELS 3 Yrotation Xrotation Zrotation
    JOINT LeftToe
    {
     OFFSET 0.000000 -4.965400 11.033500
     CHANNELS 3 Yrotation Xrotation Zrotation
     End Site
     {
      OFFSET 0.000000 -1.423100 5.872300
     }
    }
   }
  }
 }
}
MOTION
Frames: 12
Frame Time: 0.008333
-24.954485 62.084950 11.855202 175.893579 -49.795984 -0.268040 4.012283 27.367879 1.231434 0.567495 4.798421 0.209684 0.966293 7.544864 0.310293 3.015369 22.172545 1.381492 5.202221 12.142763 1.127672 9.419781 -13.127027 0.088338 5.738305 4.955682 2.212209 -15.506272 -7.348906 -10.768224 -140.702123 -50.139039 164.900022 7.802109 -0.826774 -23.615260 -8.898442 1.486421 1.569993 14.251655 -11.671457 13.323814 175.017166 -53.285578 178.322378 6.046221 -14.180895 18.759221 3.231693 -17.359050 -5.635853 -2.129469 61.852114 -5.886550 1.568996 -8.170543 10.395416 0.238475 -0.573809 0.115174 -3.491008 -14.170497 2.460041 25.864283 76.992962 26.220006 0.987029 -12.065535 -3.388620 0.258040 0.645370 0.122150
-24.954950 62.084878 11.855667 175.915946 -49.810712 -0.298055 4.041499 27.359309 1.244528 0.566466 4.801578 0.208188 0.955717 7.553515 0.321943 3.091858 22.126545 1.339116 5.202905 12.183824 1.247548 9.440892 -13.086482 0.213978 5.755561 5.026722 2.229493 -16.349941 -7.622170 -10.737830 -144.549848 -50.075881 167.178936 8.773548 -0.493208 -23.301260 -8.934363 1.467782 1.645919 14.948454 -12.545258 13.245006 176.303422 -52.564820 178.015491 5.329590 -15.365063 19.792503 3.218039 -17.341717 -5.614984 -2.138127 61.847332 -5.900937 1.569244 -8.160575 10.401157 0.237443 -0.577980 0.114593 -3.500915 -14.158374 2.474765 25.869358 76.995265 26.224847 0.997099 -12.065943 -3.390932 0.264012 0.644683 0.125857
-24.957812 62.085090 11.855601 175.940514 -49.828845 -0.319499 4.047530 27.365204 1.248821 0.626069 4.757774 0.180284 0.922257 7.579679 0.344054 3.093454 22.134091 1.358133 5.262248 12.201112 1.301713 9.432043 -13.017131 0.347728 5.794108 5.058530 2.207585 -17.265719 -7.911792 -10.729740 -148.163628 -49.914343 169.290084 9.660874 -0.233579 -23.050795 -8.912029 1.376032 1.647591 15.653216 -13.427644 13.165777 177.691962 -51.852576 177.672647 4.679253 -16.442065 20.789524 3.209931 -17.320699 -5.605661 -2.121497 61.847756 -5.892446 1.550527 -8.153960 10.410925 0.237777 -0.581866 0.113495 -3.508773 -14.142591 2.479660 25.866438 76.997192 26.224154 0.977679 -12.067653 -3.382389 0.256950 0.643062 0.122644
-24.961924 62.084194 11.856323 175.953671 -49.839180 -0.329698 4.061439 27.362752 1.251345 0.628338 4.753600 0.180075 0.999810 7.516235 0.314536 3.100230 22.147433 1.392934 5.262980 12.263296 1.391567 9.421302 -12.923656 0.493015 5.770728 5.129256 2.237234 -18.259682 -8.237483 -10.723667 -151.501477 -49.696071 171.183947 10.426440 -0.088189 -22.912692 -8.952057 1.348822 1.671396 16.390844 -14.348188 13.062092 179.204849 -51.140386 177.270955 4.123737 -17.408231 21.717150 3.208016 -17.310396 -5.604670 -2.128346 61.848903 -5.898737 1.547611 -8.148796 10.414248 0.244456 -0.581805 0.114622 -3.507144 -14.134568 2.480020 25.857070 76.997594 26.216891 0.970549 -12.069310 -3.376346 0.256923 0.645336 0.123544
-24.966806 62.083137 11.857109 175.968549 -49.848999 -0.341175 4.095187 27.339279 1.252493 0.612278 4.767386 0.190497 1.035031 7.484491 0.306019 3.145085 22.121090 1.399601 5.256039 12.340198 1.484312 9.393999 -12.807704 0.647218 5.717208 5.203514 2.286165 -19.287983 -8.606233 -10.723764 -154.622569 -49.478052 172.898752 11.049959 -0.053197 -22.917758 -8.999441 1.343714 1.694601 17.170391 -15.290072 12.920969 -179.186132 -50.431856 176.818617 3.651814 -18.265114 22.584070 3.202412 -17.299285 -5.605104 -2.129189 61.847809 -5.900479 1.546644 -8.147824 10.418227 0.250621 -0.576246 0.114824 -3.505084 -14.127432 2.476667 25.832513 76.998453 26.199011 0.971171 -12.069441 -3.370793 0.256749 0.646860 0.121716
-24.972703 62.082651 11.857336 176.000485 -49.864061 -0.363507 4.125906 27.318673 1.256673 0.658790 4.723332 0.178477 1.008530 7.504154 0.325684 3.177343 22.105661 1.413674 5.253188 12.416532 1.567177 9.350655 -12.671765 0.811002 5.670933 5.275576 2.326674 -20.363110 -9.028553 -10.699437 -157.562979 -49.271243 174.465518 11.554006 -0.080664 -23.075903 -9.040051 1.346304 1.712093 18.003306 -16.251270 12.738057 -177.542801 -49.737895 176.353182 3.231693 -19.022244 23.400691 3.190208 -17.279496 -5.606503 -2.133924 61.844689 -5.905695 1.540941 -8.148451 10.423673 0.253319 -0.571740 0.116092 -3.513138 -14.116038 2.472346 25.803939 76.999167 26.169694 0.981215 -12.067675 -3.354938 0.242509 0.648096 0.115290
-24.977410 62.082955 11.856987 176.032203 -49.886259 -0.395896 4.208006 27.259937 1.277540 0.643474 4.734209 0.191128 1.006974 7.504411 0.335422 3.167632 22.131360 1.438724 5.249956 12.457286 1.609351 9.320320 -12.512657 0.988402 5.690369 5.358148 2.275421 -21.535685 -9.526321 -10.560210 -160.318891 -49.069656 175.891802 11.967934 -0.131459 -23.376150 -9.044771 1.316148 1.708378 18.870106 -17.221050 12.518136 -175.882518 -49.067492 175.883440 2.861051 -19.693328 24.164058 3.174521 -17.253030 -5.602054 -2.125373 61.842449 -5.890949 1.536091 -8.146450 10.423966 0.257011 -0.571384 0.116525 -3.526560 -14.096708 2.476932 25.800187 77.002400 26.169463 0.982339 -12.070665 -3.351204 0.276498 0.649792 0.113934
-24.981116 62.083792 11.856200 176.062740 -49.914139 -0.435632 4.272150 27.221512 1.308130 0.637964 4.737944 0.198679 1.019005 7.491874 0.339519 3.231136 22.092027 1.452428 5.184533 12.562406 1.698646 9.274211 -12.336623 1.171454 5.605891 5.510865 2.279876 -22.728660 -10.089320 -10.383748 -162.863455 -48.864482 177.164348 12.340631 -0.174546 -23.798568 -9.127513 1.359289 1.724436 19.761201 -18.185943 12.257400 -174.187843 -48.426227 175.384464 2.539877 -20.286701 24.894501 3.159750 -17.219532 -5.589285 -2.119187 61.837733 -5.875577 1.533908 -8.144635 10.424357 0.261406 -0.571395 0.116695 -3.538647 -14.073136 2.489648 25.805919 77.007892 26.178328 0.996895 -12.067399 -3.351654 0.265257 0.645692 0.118082
-24.986027 62.084084 11.855675 176.091182 -49.939563 -0.468207 4.322422 27.191659 1.332148 0.645885 4.728998 0.200905 1.031793 7.478510 0.343316 3.298123 22.049548 1.466180 5.185310 12.693972 1.820366 9.145482 -12.163461 1.345819 5.493155 5.676000 2.290698 -23.946118 -10.698202 -10.153474 -165.166562 -48.648556 178.264042 12.730406 -0.190979 -24.316787 -9.230394 1.428159 1.745758 20.692620 -19.153640 11.932799 -172.480088 -47.824012 174.862172 2.226833 -20.809213 25.653863 3.147826 -17.187804 -5.584146 -2.114915 61.832188 -5.863850 1.541936 -8.147428 10.428797 0.253909 -0.568313 0.114041 -3.545845 -14.053039 2.500373 25.777811 77.017351 26.155979 0.985349 -12.064512 -3.337650 0.264885 0.640204 0.113962
-24.989562 62.086864 11.852986 176.141015 -49.986452 -0.525209 4.367183 27.179772 1.366774 0.653989 4.719842 0.203060 1.044884 7.464815 0.346993 3.342565 22.028863 1.483922 5.168302 12.808114 1.917993 9.029104 -11.970998 1.536677 5.383800 5.834428 2.286073 -25.178910 -11.334221 -9.856564 -167.244200 -48.427944 179.203587 13.150699 -0.177423 -24.906399 -9.325449 1.513512 1.780016 21.663042 -20.134196 11.533577 -170.764994 -47.273012 174.327399 1.897102 -21.265692 26.495611 3.119774 -17.131404 -5.566149 -2.124141 61.824682 -5.865110 1.548653 -8.142663 10.431094 0.249843 -0.574463 0.113861 -3.571984 -14.010900 2.517310 25.759442 77.029235 26.144164 0.976594 -12.060097 -3.331673 0.265748 0.630708 0.113803
-24.994637 62.085776 11.853188 176.162856 -50.005946 -0.552896 4.428943 27.136361 1.392400 0.662366 4.710835 0.205503 1.058290 7.451352 0.351149 3.388187 22.008200 1.503070 5.126779 12.927199 2.012007 8.907734 -11.756999 1.738712 5.261306 6.006026 2.287594 -26.407101 -11.976862 -9.501802 -169.189727 -48.205477 -179.956319 13.568070 -0.125140 -25.562440 -9.422543 1.569271 1.783810 22.607525 -21.076921 11.150162 -168.998474 -46.780899 173.753825 1.547367 -21.654470 27.460856 3.111594 -17.106910 -5.557996 -2.132308 61.818915 -5.868981 1.554380 -8.147087 10.437448 0.246576 -0.568535 0.112610 -3.579452 -13.998638 2.527915 25.761856 77.039390 26.148816 0.969513 -12.057755 -3.325117 0.257350 0.625085 0.115629
-24.999621 62.084803 11.852984 176.189424 -50.029133 -0.584342 4.490295 27.093420 1.421581 0.670859 4.701498 0.208189 1.071932 7.437408 0.355776 3.434770 21.986731 1.523713 5.076124 13.056967 2.105954 8.769345 -11.523293 1.944420 5.137571 6.187817 2.300004 -27.615192 -12.609634 -9.098218 -171.127829 -47.977045 -179.131819 13.930925 -0.030333 -26.285349 -9.542568 1.605393 1.747888 23.507692 -21.981724 10.799308 -167.130756 -46.344142 173.109852 1.176381 -21.961724 28.580263 3.113489 -17.074382 -5.555007 -2.148503 61.809058 -5.865868 1.559037 -8.155820 10.441283 0.242580 -0.557821 0.112082 -3.590567 -13.981861 2.538667 25.754958 77.048016 26.144552 0.964151 -12.055183 -3.321157 0.263615 0.621214 0.118492
